<?xml version="1.0" encoding="iso-8859-1"?>
<!-- Generator: Adobe Illustrator 19.0.0, SVG Export Plug-In . SVG Version: 6.00 Build 0)  -->
<svg version="1.1" id="Capa_1" xmlns="http://www.w3.org/2000/svg" xmlns:xlink="http://www.w3.org/1999/xlink" x="0px" y="0px"
	 viewBox="0 0 392.662 392.662" style="enable-background:new 0 0 392.662 392.662;" xml:space="preserve">
<circle style="fill:#F16730;" cx="196.331" cy="243.582" r="149.08"/>
<g>
	<g>
		<path style="fill:#1B1B1B;" d="M196.331,94.502h7.28v297.84c-2.4,0-4.84,0-7.28,0s-4.88,0-7.28,0V94.662
			C191.451,94.542,193.891,94.502,196.331,94.502z"/>
		<path style="fill:#1B1B1B;" d="M196.331,37.062c6.828-0.001,13.601,1.218,20,3.6c0.199-0.436,0.44-0.851,0.72-1.24l25.28-36.28
			c2.298-3.314,6.846-4.138,10.16-1.84c3.314,2.298,4.138,6.846,1.84,10.16l-25.08,36c18.631,13.026,27.835,35.808,23.48,58.12
			c-36.121-14.703-76.559-14.703-112.68,0c-4.355-22.312,4.849-45.094,23.48-58.12l-25.08-36c-2.298-3.314-1.474-7.862,1.84-10.16
			s7.863-1.474,10.16,1.84l25.32,36.28c0.28,0.388,0.522,0.804,0.72,1.24C182.84,38.299,189.557,37.08,196.331,37.062
			L196.331,37.062z"/>
	</g>
	<circle style="fill:#1B1B1B;" cx="122.371" cy="239.142" r="23.2"/>
	<circle style="fill:#1B1B1B;" cx="252.651" cy="309.822" r="23.2"/>
	<circle style="fill:#1B1B1B;" cx="275.851" cy="181.742" r="19.88"/>
	<circle style="fill:#1B1B1B;" cx="145.571" cy="165.182" r="17.68"/>
	<circle style="fill:#1B1B1B;" cx="141.171" cy="355.062" r="17.68"/>
</g>
<g>
</g>
<g>
</g>
<g>
</g>
<g>
</g>
<g>
</g>
<g>
</g>
<g>
</g>
<g>
</g>
<g>
</g>
<g>
</g>
<g>
</g>
<g>
</g>
<g>
</g>
<g>
</g>
<g>
</g>
</svg>
