<svg id="Слой_1" data-name="Слой 1" xmlns="http://www.w3.org/2000/svg" viewBox="0 0 39.05 12.1">
  <title>logo</title>
  <path d="M284.16,424.2a4.4,4.4,0,0,0,2.55-.69,2.67,2.67,0,0,0,1.2-1.78,2.88,2.88,0,0,0,0-.42,2.46,2.46,0,0,0,0-.42,1.83,1.83,0,0,0-.47-1,2.37,2.37,0,0,0-1-.63l-0.43-.08a3.14,3.14,0,0,0,.73-0.25,3.36,3.36,0,0,0,.67-0.37,2.5,2.5,0,0,0,.91-1.5,2,2,0,0,0-.12-1.13,1.69,1.69,0,0,0-.75-0.82,3.09,3.09,0,0,0-.81-0.29,4.88,4.88,0,0,0-1.06-.11h-5l-1.68,9.5h5.32Zm-1.09-4.44h0.46a0.9,0.9,0,0,1,1,1.08,6.13,6.13,0,0,1-.08.91,2,2,0,0,1-.49,1.12,1.33,1.33,0,0,1-1,.34h-0.51Zm0.17-1,0.54-3.08h0.46a0.7,0.7,0,0,1,.68.32,1.86,1.86,0,0,1,0,1.12,3.11,3.11,0,0,1-.44,1.27,0.9,0.9,0,0,1-.76.36h-0.51Z" transform="translate(-278.84 -414.7)" style="fill: #517fc8"/>
  <path d="M288.66,423.83a1.31,1.31,0,0,0,1.24.56,4.79,4.79,0,0,0,.7-0.05,2.55,2.55,0,0,0,.7-0.22,3.63,3.63,0,0,0,.7-0.44,2.88,2.88,0,0,0,.52-0.5v1h3.06l1.27-7.18q-0.9.15-1.66,0.22l-0.81,0-0.81,0L293,420.65a6,6,0,0,1-.29,1.1,2.59,2.59,0,0,1-.64,1,0.42,0.42,0,0,1-.23.14,0.13,0.13,0,0,1-.14-0.13v-0.12l0.05-.29V422.3l0-.21,0-.22,0.85-4.84-1.36.21a8.69,8.69,0,0,1-1.09.07l-0.2,0h-0.63l-0.84,4.77A2.67,2.67,0,0,0,288.66,423.83Z" transform="translate(-278.84 -414.7)" style="fill: #517fc8"/>
  <path d="M298.23,421.55a3.67,3.67,0,0,0-1.22.7,1.85,1.85,0,0,0-.41.47,1.51,1.51,0,0,0-.18.5,1,1,0,0,0,.09.65,1.15,1.15,0,0,0,.49.48l0.27,0.13a1.27,1.27,0,0,0,.27.07l-0.42.1a2.51,2.51,0,0,0-.41.14,1,1,0,0,0-.56.7,0.6,0.6,0,0,0,.22.61,2.73,2.73,0,0,0,1,.4,9.9,9.9,0,0,0,1.54.28q0.47,0,.88,0a6.76,6.76,0,0,0,2.3-.37,4.31,4.31,0,0,0,1.46-.86,2.14,2.14,0,0,0,.71-1.21,1.55,1.55,0,0,0-.1-0.89,1.45,1.45,0,0,0-.59-0.68,2.33,2.33,0,0,0-1.05-.35q-0.57,0-1.37,0l-0.92.08a3.3,3.3,0,0,1-.65,0l-0.27-.06a0.23,0.23,0,0,1-.15-0.14,0.36,0.36,0,0,1,0-.2,0.48,0.48,0,0,1,.15-0.26l0.15-.09,0.32,0.05,0.46,0a6.32,6.32,0,0,0,2.68-.5,2.79,2.79,0,0,0,1.44-1.28,2.38,2.38,0,0,0,.14-0.32,2.87,2.87,0,0,0,.07-0.3,1.73,1.73,0,0,0-.25-1.3,2.35,2.35,0,0,0-1.22-.87l-0.26-.08,0-.09a0.64,0.64,0,0,1,.16-0.2,0.33,0.33,0,0,1,.2-0.06,0.34,0.34,0,0,1,.15,0,0.76,0.76,0,0,1,.19.12l0.1,0.08,0.14,0.09a0.53,0.53,0,0,0,.23,0,1,1,0,0,0,.67-0.16,1.1,1.1,0,0,0,.43-0.57,0.77,0.77,0,0,0,0-.16,0.82,0.82,0,0,0-.28-0.8,1.47,1.47,0,0,0-1-.32,1.75,1.75,0,0,0-1.23.44,2,2,0,0,0-.61,1.17l0,0.26a2.29,2.29,0,0,0-.41,0H300.7a5.39,5.39,0,0,0-1.39.28,3.82,3.82,0,0,0-1,.56,2.63,2.63,0,0,0-1,1.58,1.77,1.77,0,0,0,.06.91,1.79,1.79,0,0,0,.53.75,2,2,0,0,0,.63.37Zm0.14,4.17a0.34,0.34,0,0,1-.29-0.29,0.47,0.47,0,0,1,.19-0.29,0.85,0.85,0,0,1,.46-0.15l0.77-.08h1.06l0.49,0a0.77,0.77,0,0,1,.34.1,0.24,0.24,0,0,1,.17.26,0.63,0.63,0,0,1-.26.33,1.75,1.75,0,0,1-.57.16,4.23,4.23,0,0,1-.7.09,5.79,5.79,0,0,1-1.65-.16h0Zm2-6.47a5.2,5.2,0,0,1,.29-1.09,0.55,0.55,0,0,1,.5-0.4q0.3,0,.32.45a5.12,5.12,0,0,1-.11.91l0,0.25-0.07.4-0.07.39a1.72,1.72,0,0,1-.2.6,0.44,0.44,0,0,1-.4.22,0.32,0.32,0,0,1-.37-0.29,2.6,2.6,0,0,1,0-.81l0.06-.36,0-.28h0Z" transform="translate(-278.84 -414.7)" style="fill: #517fc8"/>
  <path d="M307.72,424.2l0.72-4.07a5.14,5.14,0,0,1,.38-1.36,1.8,1.8,0,0,1,.22-0.37,0.87,0.87,0,0,1,.21-0.2,0.27,0.27,0,0,1,.13,0,0.19,0.19,0,0,1,.21.16,0.48,0.48,0,0,1,0,.16,3.26,3.26,0,0,1-.27.7l-0.12.24-0.14.26-0.1.17h1.93l0.12-.22a8.12,8.12,0,0,0,.38-0.88,2.23,2.23,0,0,0,.11-0.4,1.21,1.21,0,0,0-.19-1,1,1,0,0,0-.87-0.38l-0.29,0a2,2,0,0,0-1.34,1l-0.14.25,0-1.24-0.68.13q-0.61.09-1.18,0.13t-1.14,0l-1.21,6.88h3.25Z" transform="translate(-278.84 -414.7)" style="fill: #c44727"/>
  <path d="M314.09,424.2l0.72-4.07a5.14,5.14,0,0,1,.38-1.36,1.8,1.8,0,0,1,.22-0.37,0.87,0.87,0,0,1,.21-0.2,0.27,0.27,0,0,1,.13,0,0.19,0.19,0,0,1,.21.16,0.48,0.48,0,0,1,0,.16,3.27,3.27,0,0,1-.27.7l-0.12.24-0.14.26-0.1.17h1.93l0.12-.22a8.12,8.12,0,0,0,.38-0.88,2.23,2.23,0,0,0,.11-0.4,1.21,1.21,0,0,0-.19-1,1,1,0,0,0-.87-0.38l-0.29,0a2,2,0,0,0-1.34,1l-0.14.25,0-1.24-0.68.13q-0.61.09-1.18,0.13t-1.14,0l-1.21,6.88h3.25Z" transform="translate(-278.84 -414.7)" style="fill: #c44727"/>
</svg>
