<svg id="Слой_1" data-name="Слой 1" xmlns="http://www.w3.org/2000/svg" viewBox="0 0 437.17 76.87">
  <title>h1</title>
  <path d="M105,413.27q-2.38-6.1-2.38-6.28a2.6,2.6,0,0,1,.29-0.93,9.67,9.67,0,0,1,.91-1.51q1.38-1.89,2.42-3.63t1.91-3.34l2.42-4.27,2.16-3.83q0.25-.91.49-1.53a7.67,7.67,0,0,1,.42-0.94q0.07-.62.13-1.45t0.05-1.93a1.28,1.28,0,0,0-.24-0.85,0.84,0.84,0,0,0-.67-0.27,1.83,1.83,0,0,0-.8.78q-0.58.78-1.56,2.23-0.51.87-1.05,1.73l-1.09,1.69-0.69.82q-0.29.35-.51,0.56-0.54,1.09-1,1.89t-0.67,1.38a15.07,15.07,0,0,0-1,1.53,9.92,9.92,0,0,0-.67,1.49q-0.73,1.2-1.25,2t-1,1.34A9.33,9.33,0,0,1,101,401a4.08,4.08,0,0,1-.67.69,25.17,25.17,0,0,1-2.22-3.12,6.41,6.41,0,0,1-.44-0.8l-0.29-.65a28.56,28.56,0,0,0-2.51-3.83A40.44,40.44,0,0,0,91.09,389a4.42,4.42,0,0,1-1.65-.45,4.38,4.38,0,0,0-1.54-.45,1.53,1.53,0,0,0-1.09.35,1.26,1.26,0,0,0-.36,1,1.88,1.88,0,0,0,.2.76,6.93,6.93,0,0,0,.6,1,8.43,8.43,0,0,1,.58.8,8.18,8.18,0,0,0,.58.8l1,1.83q0.42,0.78.67,1.29l0.51,0.65a2.07,2.07,0,0,0,.36.4q0.33,0.58.94,1.82t1.49,3.12q1.16,2.43,1.76,3.92a7.07,7.07,0,0,1,.6,2q0,0.73-1.91,3.52T88.18,419q-1.2,1.49-2.47,3l-2.58,3.11A25.39,25.39,0,0,0,80.7,429a7.26,7.26,0,0,0-.84,3.05q0,0.54,0,1.78t0,1.85a3,3,0,0,0,.51,1.93,1.91,1.91,0,0,0,1.56.62q0.51,0,4.58-3.27t4.43-4l0.56-1.14a6.23,6.23,0,0,0,.27-0.64,1.9,1.9,0,0,0-.31-0.93,0.64,0.64,0,0,0-.71-0.2H90.43l-0.8.51a5.24,5.24,0,0,0-.54.36,0.78,0.78,0,0,1-.31-0.13,1.07,1.07,0,0,1-.24-0.24,11.31,11.31,0,0,1,.54-1.36,10.57,10.57,0,0,1,1-1.69q0.94-1.27,2-2.83,0.84-1.49,1.4-2.4t0.82-1.24q1.16-1.34,1.82-2.23a8.7,8.7,0,0,0,.84-1.29A6.76,6.76,0,0,1,98,414.11a5.64,5.64,0,0,1,.58,1.38q0.36,1.13.67,2t0.56,1.42q0.47,1.63.82,2.87t0.49,2.07q0.36,1.63.56,2.87t0.31,2q-0.47,1.56-.73,2.67a8.22,8.22,0,0,0-.25,1.69,4.74,4.74,0,0,0,.13,1.18,2.22,2.22,0,0,0,.38.82l0.69,0.76q0.33,0.36.69,0.73,0.18,0.44.42,0.94a0.76,0.76,0,0,0,.71.51,2.4,2.4,0,0,0,1-.31,10.25,10.25,0,0,0,1.45-.93,5.88,5.88,0,0,0,1-1,9.89,9.89,0,0,0,.84-1.29,11,11,0,0,0,.62-1.31q0.29-.73.58-1.42a9,9,0,0,0,.2-1.6q0-.73,0-1.24a5,5,0,0,0-.2-1.13,13.38,13.38,0,0,0-.67-1.85,3.59,3.59,0,0,1-.29-0.93,16.34,16.34,0,0,1-.25-1.73,5.13,5.13,0,0,0-.27-1.53,3.21,3.21,0,0,0-.64-1.09Q107.4,419.37,105,413.27Z" transform="translate(-79.83 -382.5)"/>
  <path d="M111.65,427.36a2,2,0,0,1,.18.4q0.29,0.87.56,1.53t0.45,1.13l1.74-1.42q0.73-.58,1.13-0.87l0.15-.07a0.6,0.6,0,0,1,.53.54,6.09,6.09,0,0,1,.16,1.63q-0.11.76-.25,1.38,0.22,0.65.36,1-0.11.44-.16,0.76a3.43,3.43,0,0,0-.05.54,2.22,2.22,0,0,0,.62,1.73,2.61,2.61,0,0,0,1.82.56,5.21,5.21,0,0,0,4.94-3.05,10.78,10.78,0,0,0,2.43-1.58,16.41,16.41,0,0,0,2.43-2.6q0.91-.87,1.69-1.53a7.59,7.59,0,0,1,1.44-1,3.11,3.11,0,0,1,.16.67,1,1,0,0,0,.09.38q-0.22,1.6-.47,3a17.11,17.11,0,0,1-.62,2.42q-0.8,1.82-1.36,3.16t-1,2.29a7,7,0,0,1-.27.8q-0.16.4-.31,0.69l-2.11,2.31q-1.24,1.36-2.72,3.11-2,2.36-3.11,3.87a11.5,11.5,0,0,0-1.36,2.16l-0.63.58a4.2,4.2,0,0,0-.41.44,2.72,2.72,0,0,1-.14.65l-1.08.94a21.62,21.62,0,0,1-1.27,2,4.08,4.08,0,0,0-.65,1.16,3,3,0,0,0-.18.91,1.3,1.3,0,0,0,.36,1,1.71,1.71,0,0,0,1.16.33,7.61,7.61,0,0,0,4.39-1.6,23.09,23.09,0,0,0,4.76-4.9q0.73-1,2.34-3.52t4-6.5a28.37,28.37,0,0,1,4.41-5.36,56.22,56.22,0,0,1,6.66-5.47,7.78,7.78,0,0,0,1.11-.89l0.71-.71-1.45-3.34q-2.28,2.29-3.79,3.65a11.29,11.29,0,0,1-2.26,1.73l-0.25-.33q0.76-2.25,1.43-4.12t1.29-3.22q0.73-2.14,1.24-3.72t0.76-2.67c0-.15.05-0.3,0.09-0.45a2.17,2.17,0,0,0,.05-0.49,1.08,1.08,0,0,0-.42-0.93,2.1,2.1,0,0,0-1.25-.31,5.34,5.34,0,0,0-2.09.36,3.07,3.07,0,0,0-1.33,1q-1.16,1.27-2.09,2.18t-1.65,1.49q-1.89,1.85-3.29,3.27t-2.34,2.29q-1.16,1-2.09,1.65t-1.62,1.11l-0.18,0a0.56,0.56,0,0,1-.38-0.15,0.66,0.66,0,0,1-.16-0.51,16.27,16.27,0,0,1,1.09-4.8,16.23,16.23,0,0,0,1.09-4.58,1.76,1.76,0,0,0-.49-1.38,2,2,0,0,0-1.36-.44,3,3,0,0,0-1.38.36,7.09,7.09,0,0,0-1.42,1l-2.08,2.2q-0.87.93-1.42,1.58a24.69,24.69,0,0,1-2.56,2,19,19,0,0,0-2.56,2.11A1,1,0,0,1,111.65,427.36Z" transform="translate(-79.83 -382.5)"/>
  <path d="M164.74,412.82a3.44,3.44,0,0,0-1-1,4.67,4.67,0,0,0-1.09-.44,5.14,5.14,0,0,0-1.38-.18q-1.67.29-2.65,0.54a9.67,9.67,0,0,0-1.24.53l-1.24.6a11.73,11.73,0,0,0-1.2,1.2,0.25,0.25,0,0,1-.35,0,0.28,0.28,0,0,0-.35,0q-0.65.51-1.31,1.07a12.35,12.35,0,0,0-1.2,1.18,15.41,15.41,0,0,0-1.76,2.2,14.73,14.73,0,0,0-1.29,2.38,15.54,15.54,0,0,0-.85,2.29,8.62,8.62,0,0,0-.35,2.4,5.34,5.34,0,0,0,.36,1.85,4.46,4.46,0,0,0,1,1.63,4,4,0,0,0,1.67.91,6.68,6.68,0,0,0,1.82.29,8.73,8.73,0,0,0,1.27-.25,5,5,0,0,0,1.93-.44,19.55,19.55,0,0,1-1.38,1.45,11.12,11.12,0,0,1-1.49,1.2l-1.16.71a3.53,3.53,0,0,1-1.34.49,8.76,8.76,0,0,1-1.07.09,2.7,2.7,0,0,1-1.18-.24,5,5,0,0,1-1.54-1.11,4,4,0,0,1-.78-2.82,6.42,6.42,0,0,0-.33-2.47,1,1,0,0,0-1.2-.54q-1.34.33-1.58,2.63t-0.24,3a21.15,21.15,0,0,0,.18,2.31,7.66,7.66,0,0,0,.44,1.76,5.78,5.78,0,0,0,1.25,2.05,3.59,3.59,0,0,0,1.69,1.07,4.44,4.44,0,0,0,2.43-.11,16,16,0,0,0,2.22-.84,14.84,14.84,0,0,0,1.69-1,14.49,14.49,0,0,0,1.83-1.42,15.74,15.74,0,0,0,1.85-1.87q0.73-.89,1.49-1.87t1.22-1.71q0.56-.84,1-1.56,0.11-.36.24-0.67a0.28,0.28,0,0,1,.45-0.13q0.33,0.18,0,.38a0.47,0.47,0,0,0-.24.53,8.17,8.17,0,0,0-.93,2.8,5.32,5.32,0,0,0,.16,2.33,3.23,3.23,0,0,0,1,1.45,2.88,2.88,0,0,0,1.58.69,7.59,7.59,0,0,0,2,0,6.11,6.11,0,0,0,1.85-.58,7.79,7.79,0,0,0,1.69-1.16q0.82-.73,1.58-1.53,0.54-.58,1.11-1.27t1.07-1.42l-1.49-3.31a14.81,14.81,0,0,1-1.42,1.87,8.45,8.45,0,0,1-1.93,1.73,1.45,1.45,0,0,1-1.16.33,0.83,0.83,0,0,1-.58-1,6.84,6.84,0,0,1,.18-1.42q0.18-.84.47-1.78a15.52,15.52,0,0,1,.74-2.05q0.42-.93,1-2.2,0.4-1,1.94-4.07a55.46,55.46,0,0,0,2.34-5.23,2,2,0,0,0,.22-1.45,1.47,1.47,0,0,1-.22-1,0.43,0.43,0,0,0-.38-0.47,1.34,1.34,0,0,1-.64-0.29,1.91,1.91,0,0,1-.44-0.87,1.42,1.42,0,0,0-1.31.22,4.69,4.69,0,0,0-1.13,1.16,14,14,0,0,0-1.07,1.94q-0.49,1.07-.82,1.83A4.55,4.55,0,0,0,164.74,412.82Zm-4.29,8.92q-0.31.54-1,1.49a8.17,8.17,0,0,1-2.11,2.07,5.3,5.3,0,0,1-2.8.94,1.73,1.73,0,0,1-1.33-.4,2.23,2.23,0,0,1-.6-1.27,5.89,5.89,0,0,1,.07-1.8,13.86,13.86,0,0,1,.47-2.05,6.85,6.85,0,0,1,1-2.07q0.64-.87,1.36-1.78,0.54,0.87,1,.69l0.65-.29a1.29,1.29,0,0,0,.53-0.42,0.94,0.94,0,0,1,.64-0.35,3.42,3.42,0,0,1,2.2.24,2.11,2.11,0,0,1,.78.85,2.86,2.86,0,0,1,.18,1.14,4.35,4.35,0,0,1-.44,1.73Q160.76,421.19,160.46,421.73Z" transform="translate(-79.83 -382.5)"/>
  <path d="M170.46,429.07a9,9,0,0,1,.51,1.34,26.22,26.22,0,0,1,2.16-2.45,4.1,4.1,0,0,1,1.22-.93,13.54,13.54,0,0,1-.05,2.29,25.68,25.68,0,0,1-.45,2.8q-0.25,1.31-.51,2.58t-0.47,2.51q-0.73,4.29-1.09,8t-0.36,6.87a7,7,0,0,0,.54,3.12,1.75,1.75,0,0,0,1.63,1.05,1.86,1.86,0,0,0,1.16-.74,12.48,12.48,0,0,0,1.53-2.2,17.69,17.69,0,0,0,.71-2,11,11,0,0,0,.31-1.34,10.81,10.81,0,0,1,.89-2.43,13.57,13.57,0,0,0,.93-2.4q0.62-2.33,1.16-4t1-2.78q0.29-1.27.51-2.65,0.36-.87.71-1.54a12,12,0,0,0,.56-1.25,29.67,29.67,0,0,1,1.78-4.14,6.47,6.47,0,0,1,1.63-2.14,5.62,5.62,0,0,1,2.09,1.78,5.24,5.24,0,0,0,2.2,1.78l2.47,0.91q1.45-.25,2.23-0.47l1-.25-1.53-3.34a1.53,1.53,0,0,1-1-.64,6.81,6.81,0,0,1-1-1.69l-1.33-2.82a11.22,11.22,0,0,0-.67-1.29,5.57,5.57,0,0,0-1.6-1.6,3.5,3.5,0,0,0-1.89-.54,2.43,2.43,0,0,0-1.14.38,8,8,0,0,0-1.51,1.18q-0.84,2.07-1.58,3.58t-1.33,2.56l-2.54,7.65q-1.09,3.29-1.89,5.39a3.52,3.52,0,0,1,0,1.11q-0.11.67-.33,1.65a8.33,8.33,0,0,1-.42,1.67,1.56,1.56,0,0,1-.42.69l-0.15-.29a8.74,8.74,0,0,1,.22-1.78q0.25-1.38.87-3.71,0.25-1.2.38-2.11t0.24-1.6q1.05-4.69,1.85-7.83a49.12,49.12,0,0,1,1.45-4.89q2.47-7.23,3.72-11.21a27.72,27.72,0,0,0,1.25-4.7,4.11,4.11,0,0,0-.35-1.93,1.15,1.15,0,0,0-1.07-.62,1.42,1.42,0,0,0-1,.47,6.23,6.23,0,0,0-1,1.34q-0.58,1.16-1,2.09t-0.71,1.54a51.72,51.72,0,0,1-2.62,5.16q-1.53,2.65-3.45,5.52a12.66,12.66,0,0,0-.54,1.14q-0.18.45-.29,0.78-1.63,1.71-2.78,3t-1.87,2.27Q170.1,428.27,170.46,429.07Z" transform="translate(-79.83 -382.5)"/>
  <path d="M221.58,426.89a31.45,31.45,0,0,1-2.34,2.11,8.17,8.17,0,0,1-2.31,1.42l0.15-.82a5,5,0,0,0,.07-0.85q0-.4.09-0.89a7.87,7.87,0,0,0,.05-0.85,7.48,7.48,0,0,0-.15-1.33,7.11,7.11,0,0,1-.15-1.22,1.56,1.56,0,0,0-1.24-1.34,1.33,1.33,0,0,0-.87.35,2.73,2.73,0,0,1-.94.49,4,4,0,0,0-.91.4q-0.51.29-.91,0.47a2.78,2.78,0,0,0-.94,1,7.63,7.63,0,0,1-.25,1.2,4,4,0,0,0-.18,1.13,6.41,6.41,0,0,0,.18,1.56q0.18,0.73.33,1.34a3.45,3.45,0,0,0,.64,1.31,4.27,4.27,0,0,0,1,.8,3.24,3.24,0,0,1-1.54,1.47,4.12,4.12,0,0,1-1.54.45,2.54,2.54,0,0,1-2.91-1.38,3.08,3.08,0,0,1-.51-1.45q-0.07-.8-0.07-1.38,0-.22.11-1.56a15.59,15.59,0,0,1,.73-3.31,21.71,21.71,0,0,1,1.14-2.76,26.67,26.67,0,0,0,1.25-3,2.41,2.41,0,0,1,.64-1,2.74,2.74,0,0,0,.67-1,2.29,2.29,0,0,1,.78-1.16,2.47,2.47,0,0,0,.82-1.16q0.07-.18.24-0.67a1.57,1.57,0,0,0-.05-1.07,2.42,2.42,0,0,0-.76-1,3.88,3.88,0,0,1-.8-0.87L210.3,411a4.44,4.44,0,0,0-.78-1.18,0.88,0.88,0,0,0-.78,0,1.41,1.41,0,0,0-.71.62,1.26,1.26,0,0,1-.53.51,1.52,1.52,0,0,0-.56.51,1.47,1.47,0,0,0-.13.58,1.2,1.2,0,0,1-.13.55,3,3,0,0,1-.49.58,4.6,4.6,0,0,0-.53.58,3.21,3.21,0,0,0-.35.67,3.22,3.22,0,0,1-.35.67,0.81,0.81,0,0,0,0,.8,0.81,0.81,0,0,1,0,.8,1.4,1.4,0,0,1-.45.33,1.41,1.41,0,0,0-.45.33q-0.76.91-1.82,2.32t-1.82,2.25q-1,1-2,2t-1.93,1.82l-0.89.8-0.85.73,1.42,3.38a3.57,3.57,0,0,0,.53-0.44l0.78-.73a10.26,10.26,0,0,1,1.16-.91,10.82,10.82,0,0,0,1.31-1.05,7.56,7.56,0,0,0,1.11-1.27,5.85,5.85,0,0,1,.71-0.94q-0.54,1.63-.82,2.56t-0.49,1.91a10.32,10.32,0,0,0-.35,2.25q0,0.95-.05,2.36a6.78,6.78,0,0,0,.78,3.2,8,8,0,0,0,2,2.51,7.71,7.71,0,0,0,2.54,1.33,9.93,9.93,0,0,0,3,.45,7.08,7.08,0,0,0,3-.64,8,8,0,0,0,2.45-1.73q0.47-.54,1-1.24a6.07,6.07,0,0,0,.85-1.56,1.42,1.42,0,0,0,0-.71,1.26,1.26,0,0,1,0-.67,1.29,1.29,0,0,1,.36-0.49,1,1,0,0,0,.33-0.6,7.24,7.24,0,0,0,4.11-1.54,20,20,0,0,0,2.54-2.45Z" transform="translate(-79.83 -382.5)"/>
  <path d="M272,427a2.52,2.52,0,0,1-.22.38l-0.29.38a10.76,10.76,0,0,1-.73.8q-0.4.4-.8,0.73t-0.84.64a8.47,8.47,0,0,1-.84.53,3.71,3.71,0,0,1-.84.31,1.86,1.86,0,0,1-.65.05,0.75,0.75,0,0,1-.56-0.71,6.61,6.61,0,0,1-.09-1.54v-0.76a4.69,4.69,0,0,1,.11-0.87,7.26,7.26,0,0,1,.15-0.74q0.07-.27.18-0.74a2.28,2.28,0,0,0,1.16-.33,3.79,3.79,0,0,0,.44-1.45,2.83,2.83,0,0,0,.51-1.07,0.92,0.92,0,0,0-.18-0.93l-1-.22q0.11-.44.27-1t0.31-1.09q0.33-1.09.74-2.29t0.74-2.22a5.66,5.66,0,0,1,.29-0.91,8.32,8.32,0,0,0,.29-0.8q0.11-.29-1-0.4a5.74,5.74,0,0,0-2,.11,9.57,9.57,0,0,0-1.94.74,2.21,2.21,0,0,0-1.18,1.11q-0.11.4-.27,0.85a9.31,9.31,0,0,0-.27.89,8.52,8.52,0,0,0-.2.84,7.2,7.2,0,0,1-.24.91,4.83,4.83,0,0,1-.31.76,6.31,6.31,0,0,0-.35.84q-0.15.4-.25,0.82l-0.22.85a5.93,5.93,0,0,0-.89.15,7.9,7.9,0,0,0-.85.25,6.06,6.06,0,0,0-1.27.6,6,6,0,0,0-1.09.85,5.36,5.36,0,0,1-.82.65,3.29,3.29,0,0,0-.82.76,9.68,9.68,0,0,1-.87,1.11,8.4,8.4,0,0,0-.84,1.07,4.86,4.86,0,0,0-.54,1.05,2.58,2.58,0,0,1-.51.87,3,3,0,0,0-.4.67,0.67,0.67,0,0,1-.36.42,0.7,0.7,0,0,1-.35-0.6,2.55,2.55,0,0,1,.2-1.14,9.43,9.43,0,0,1,.69-1.45q0.47-.84.84-1.63t0.65-1.38l0.62-1.38,0.38-.94q0.2-.51.35-0.94,0.22-.65.45-1.29a7.45,7.45,0,0,0,.35-1.22,13.08,13.08,0,0,0,.31-1.65,4.87,4.87,0,0,0,0-1.4,2.62,2.62,0,0,0-.33-1,1.63,1.63,0,0,0-.69-0.65,7.43,7.43,0,0,0-1-.35,3.38,3.38,0,0,0-.87-0.13,2.68,2.68,0,0,0-1.27.33,7.45,7.45,0,0,0-1.27.87,10.06,10.06,0,0,0-1.22,1.2q-0.67.76-1.36,1.6l-1,1.2-1,1.2q-0.76.84-1.54,1.78L244,422.79l-1.53,1.8q-0.76.89-1.42,1.54-0.36.4-.71,0.74a7.14,7.14,0,0,1-.67.6l1.45,3.31,0.53-.45a7.12,7.12,0,0,0,.6-0.6q0.44-.44.93-1t0.93-1q0.36-.44.73-0.84l0.65-.73,1-1.07a12.21,12.21,0,0,1,.94-0.89,3.56,3.56,0,0,1,.91-0.64,0.8,0.8,0,0,1,.65-0.09,0.67,0.67,0,0,1,.31.64,5.42,5.42,0,0,1-.13,1.22,11.51,11.51,0,0,1-.35,1.27l-0.49,1.49q-0.22.65-.51,1.4T247.26,431q-0.18.62-.35,1.27t-0.31,1.27a7.84,7.84,0,0,1-.29.91,3.26,3.26,0,0,0-.22.84,7,7,0,0,0-.07,1,1.18,1.18,0,0,0,.29.82,5,5,0,0,0,.51.51,1.9,1.9,0,0,0,.65.4,7.07,7.07,0,0,0,.82.33,1.27,1.27,0,0,0,.89-0.15,2.9,2.9,0,0,1,1-.27,1.4,1.4,0,0,0,.94-0.45q0.29-.36.73-1t0.73-1a4.39,4.39,0,0,0,.62-1.16,4.42,4.42,0,0,1,.58-1.13q0.44-.65.78-1.29a10.25,10.25,0,0,1,.74-1.18,7.43,7.43,0,0,1,1-1.14q0.56-.53,1-1a9.34,9.34,0,0,0,.8-0.91,4.16,4.16,0,0,1,.8-0.8,3.32,3.32,0,0,1,1-.44,5.33,5.33,0,0,1,1-.18q-0.11.54-.18,1.13t-0.11,1.13a2.06,2.06,0,0,1-.11.65,2.06,2.06,0,0,0-.11.65,4.89,4.89,0,0,0,.09,1,8,8,0,0,1,.13.89l0.07,0.67q0,0.35.07,0.6a6.11,6.11,0,0,0,.27.84,3.09,3.09,0,0,0,.38.69,4.3,4.3,0,0,0,.51.56,2.21,2.21,0,0,0,.62.42,5.35,5.35,0,0,0,.71.25,3,3,0,0,0,.82.11,7.2,7.2,0,0,0,1.31-.13,9.92,9.92,0,0,0,1.34-.35,14.39,14.39,0,0,0,1.85-.74,12.88,12.88,0,0,0,1.78-1,2.46,2.46,0,0,0,.6-0.58,4,4,0,0,1,.56-0.62,6.07,6.07,0,0,1,.6-0.53,5.34,5.34,0,0,0,.53-0.45q0.33-.4.47-0.54a2.81,2.81,0,0,0,.36-0.51Z" transform="translate(-79.83 -382.5)"/>
  <path d="M272.42,426.51a3.86,3.86,0,0,1-.42.56q0.33,0.73.6,1.36l0.49,1.14q0.15,0.25.24,0.45a0.93,0.93,0,0,1,.09.38,5.28,5.28,0,0,1-.07.76,6.19,6.19,0,0,0-1.25,1.73,4.36,4.36,0,0,0-.42,1.87,3.64,3.64,0,0,0,.84,2.63,3.47,3.47,0,0,0,2.58.85,2.33,2.33,0,0,0,.8-0.24q0.54-.24,1.31-0.64,1.2-.65,2.16-1.27a15.68,15.68,0,0,0,1.69-1.24l1.24-1.2q0.87-.84,2.14-2.14,0.94-.76,1.65-1.31l1.18-.91q0.29-.33.51-0.53l0.4-.38a2,2,0,0,1,.38.71,2.66,2.66,0,0,1,.09.67,6.52,6.52,0,0,0,1.49,4.07,4.76,4.76,0,0,0,3.63,1.34,5.32,5.32,0,0,0,2-.42,9.33,9.33,0,0,0,2.11-1.25,21,21,0,0,0,1.73-1.54q0.82-.82,1.65-1.58a13.89,13.89,0,0,0-.53-1.44q-0.35-.82-0.85-1.91a3.46,3.46,0,0,1-.53.44,4.25,4.25,0,0,1-.42.25l-0.49.58L298,429a4.07,4.07,0,0,1-.64.47,1.24,1.24,0,0,1-.64.18,2.08,2.08,0,0,1-1.76-.93,3.28,3.28,0,0,1-.64-2.09q0-1.67.07-3.49a3.69,3.69,0,0,0-.47-1.8,1.31,1.31,0,0,0-1.16-.6,5,5,0,0,0-2.69,1,15.32,15.32,0,0,0-3.12,3l-0.58.36-0.51.29a11.63,11.63,0,0,0-1.11.93l-2,1.83a17,17,0,0,1-1.93,1.63,6.15,6.15,0,0,1-1.67.87l-0.25-.33,1.71-2.4a11.63,11.63,0,0,1,.91-1.16q2-1.78,3.25-3.05a8.45,8.45,0,0,0,1.58-2.07,16,16,0,0,0,1.34-1.09l0.69-.65q0.25-.36.62-0.84a16.51,16.51,0,0,0,2-1.69,17.57,17.57,0,0,0,1.42-1.62q1.05-.8,2-1.45a2.44,2.44,0,0,0,.85-1,3.13,3.13,0,0,0,.27-1.34,1.42,1.42,0,0,0-.45-1.13,2.08,2.08,0,0,0-1.4-.4,8.4,8.4,0,0,0-4.2,1.56,39.25,39.25,0,0,0-5.79,4.69,10.71,10.71,0,0,1-1.34,1.11q-0.62.42-1,.64-0.84.73-1.38,1.27a11.7,11.7,0,0,0-.84.91,5,5,0,0,0-1,.58,2.52,2.52,0,0,0-.67.8,6.32,6.32,0,0,1-.58.89q-0.25.31-.44,0.49l-3.31,2.18Q272.69,426.09,272.42,426.51Z" transform="translate(-79.83 -382.5)"/>
  <path d="M353.89,394.6l-0.62-.73a7.46,7.46,0,0,0-.62-0.62,5.71,5.71,0,0,1-.54-0.54,8.29,8.29,0,0,0-.82-0.78,9.27,9.27,0,0,0-.74-0.56l-0.62-.42a1.35,1.35,0,0,0-.51-0.24,2,2,0,0,1-.56-0.22,3.67,3.67,0,0,0-.74-0.29,1.92,1.92,0,0,0-.65,0,2.15,2.15,0,0,1-.69,0q-0.54-.11-1.16-0.18l-1.23-.15-1.25-.2a9.89,9.89,0,0,0-1.29-.13,10.68,10.68,0,0,1-1.07-.11,6.9,6.9,0,0,0-1.07-.07q-0.62,0-1.31-.05t-1.23-.05l-0.67,0-0.6,0a4.15,4.15,0,0,0-.09-1.89,0.7,0.7,0,0,0-.71-0.51,2.88,2.88,0,0,0-1.44.65,6.52,6.52,0,0,0-1.44,1.67H329l-1.07,0-0.6,0a2.6,2.6,0,0,0-1.63,1.16,9.51,9.51,0,0,0-1.31,2.4,3.53,3.53,0,0,0-.11.54,3.63,3.63,0,0,1-.11.54,6.44,6.44,0,0,1-.35.84,1.56,1.56,0,0,0-.2.65,1.34,1.34,0,0,0,.13.78,0.78,0.78,0,0,0,.35.35,16.18,16.18,0,0,0,2.07.07,4.78,4.78,0,0,0,1-.11,5.28,5.28,0,0,1,1.07-.11l0.64,0,0.67,0q-0.15.65-.27,1.38T329,399q-0.22,1.31-.4,2.36t-0.4,2.51q-0.11,1.09-.31,2.49t-0.38,2.56q-0.11.8-.24,1.42a12.89,12.89,0,0,0-.2,1.42q-0.15,1.74-.18,3.2t-0.07,3.09q0,0.62-.05,1.22t-0.09,1.14q0,1.31-.15,2.54t-0.11,2.32q-0.07,3.45,0,5.74a20.57,20.57,0,0,0,.4,3.52,3.94,3.94,0,0,0,.84,1.82A2.55,2.55,0,0,0,329,437a1.29,1.29,0,0,0,.89-0.2l0.78-.49a1.7,1.7,0,0,0,.47-0.58,2.72,2.72,0,0,1,.44-0.62,19.93,19.93,0,0,0,2.56-4.07q1.62-3.09,1.07-3.56a0.58,0.58,0,0,0-.64.18q-0.45.33-1,.73a1.58,1.58,0,0,1-.89.35q-0.45,0-.53-0.78a7.89,7.89,0,0,0-.24-1.45,6.85,6.85,0,0,1-.2-1.67,10.76,10.76,0,0,1,.15-1.65,11.36,11.36,0,0,0,.15-1.76q0-1.23.11-2.52t0.18-2.71q0-1.27,0-2.27a19.44,19.44,0,0,1,.07-2.31,24.19,24.19,0,0,1,.49-3.14,30.13,30.13,0,0,0,.53-3.21,1.23,1.23,0,0,0-.11-1,1.19,1.19,0,0,1-.07-1q0.18-1.31.33-2.25t0.36-2.22q0.11-.69.25-1.4t0.25-1.36h2.4a4.28,4.28,0,0,1,.62.05,4.27,4.27,0,0,0,.62.05,3.11,3.11,0,0,1,.87.13,3.08,3.08,0,0,0,.87.13,1.25,1.25,0,0,0,.6-0.15,1.26,1.26,0,0,1,.6-0.15,6.75,6.75,0,0,0,1.09-.07,4.08,4.08,0,0,1,1.09,0,6.71,6.71,0,0,1,1,.24q0.53,0.16,1,.27a9.39,9.39,0,0,0,1.09.16,8.07,8.07,0,0,1,1.05.16,1.5,1.5,0,0,1,.62.31,2,2,0,0,0,.62.35,1.5,1.5,0,0,0,.62.09,1.76,1.76,0,0,1,.58.05q0.65,0.18.67,1.85t-0.2,4.29L350.14,406q-0.11,1.31-.25,2.32a10.7,10.7,0,0,1-.51,2.05,21,21,0,0,0-.62,2.16,10.87,10.87,0,0,0-.22,1.82,14.51,14.51,0,0,1-.18,1.82q-0.15.94-.62,2.82t-0.62,2.89a8.6,8.6,0,0,0-.09,2.38,8.63,8.63,0,0,1-.09,2.38,11.77,11.77,0,0,1-.65,2.43,12.11,12.11,0,0,0-.65,2.32q-0.15.76-.27,1.82T345.13,435a7.36,7.36,0,0,1-.42,1.69,6.1,6.1,0,0,0-.38,1.58,2.6,2.6,0,0,0,.22,1.38,2.61,2.61,0,0,1,.25,1.27,7.49,7.49,0,0,0,0,1.18,10.38,10.38,0,0,1,.05,1.07,12.34,12.34,0,0,0,.07,1.25q0.07,0.71,1,.45a2.31,2.31,0,0,0,.84-0.6,6.27,6.27,0,0,1,.94-0.78,1.42,1.42,0,0,0,.54-0.58q0.22-.4.36-0.73a0.81,0.81,0,0,0,0-.54,1.79,1.79,0,0,1,0-.62,11,11,0,0,1,.27-1.45q0.2-.8.35-1.63,0.07-.47.18-1t0.25-1.05q0.14-.54.56-1.71a12.66,12.66,0,0,0,.53-1.74q0.14-.69.25-1.49t0.25-1.45a7.37,7.37,0,0,1,.51-1.45,7.62,7.62,0,0,0,.51-1.42q0.07-.33-0.09-0.18c-0.11.1-.14,0-0.09-0.18a9.53,9.53,0,0,1,.38-1.24,7.27,7.27,0,0,0,.35-1.16q0.11-.65.6-2.34t0.67-2.45a5,5,0,0,0,.09-0.73,3.58,3.58,0,0,1,.13-0.76q0.22-.84.51-1.71a16.57,16.57,0,0,0,.47-1.71,2,2,0,0,0,.05-0.6,2,2,0,0,1,.05-0.6,13.06,13.06,0,0,1,.36-1.31,8.62,8.62,0,0,0,.33-1.31q0.07-.47.13-1.18t0.13-1.18a11.67,11.67,0,0,1,.49-2,11.46,11.46,0,0,0,.49-2.05q0.07-.44.15-0.91t0.11-.91a3.31,3.31,0,0,0,0-.76,7.36,7.36,0,0,0-.16-0.87,4.1,4.1,0,0,0-.35-0.89q-0.24-.45-0.42-0.89a7.53,7.53,0,0,0-.56-1.05q-0.34-.54-0.67-1T355,396q-0.24-.31-0.49-0.6Z" transform="translate(-79.83 -382.5)"/>
  <path d="M359.62,428.73q0.36,0.85.65,1.69a3.08,3.08,0,0,0,.47-0.65,3,3,0,0,1,.25-0.44l2-1.56a2.43,2.43,0,0,1,.87-0.54,0.61,0.61,0,0,1,.45.16,0.57,0.57,0,0,1,.16.42,11.26,11.26,0,0,1-.4,1.69,9.07,9.07,0,0,0-.4,2.31,5.49,5.49,0,0,0,1.67,3.89,5.08,5.08,0,0,0,3.74,1.74,3.37,3.37,0,0,0,.85-0.15,3.38,3.38,0,0,1,.71-0.15,4.53,4.53,0,0,0,1.36-.24,12.87,12.87,0,0,0,1.65-.67,12.53,12.53,0,0,0,2.85-1.65,11.81,11.81,0,0,0,2.2-2.2,2.76,2.76,0,0,0,.87,1.13,2.27,2.27,0,0,0,1.38.4,3.82,3.82,0,0,0,1.47-.31,6.38,6.38,0,0,0,1.58-1q0.69-.51,1.31-1.05l1.27-1.13q-0.36-.84-0.71-1.69t-0.71-1.65a5.87,5.87,0,0,1-.74.54,1.18,1.18,0,0,1-.6.18,0.61,0.61,0,0,1-.47-0.2,1.8,1.8,0,0,1-.33-0.67,4.38,4.38,0,0,0,.78-1.05,10.09,10.09,0,0,0,.78-1.82,12.66,12.66,0,0,0,.47-1.82,8.68,8.68,0,0,0,.15-1.45,7.59,7.59,0,0,0-1.33-4.89,4.85,4.85,0,0,0-4-1.62,5.34,5.34,0,0,0-1.16.29q-0.91.29-2.51,0.91l-0.22-.33q0.4-.84.76-1.67a0.7,0.7,0,0,0-.45-0.56,2.92,2.92,0,0,0-1.22-.2,3.12,3.12,0,0,0-1.34.29,5.17,5.17,0,0,0-1.2.8q-0.51.51-1,1.05t-1,1.09q-0.44.4-.94,0.82t-1,.89a8,8,0,0,0-1,1,4.66,4.66,0,0,0-.6.93Q365.4,421,364.35,422a16.7,16.7,0,0,0-1.56,1.58l-2.8,1.93q-0.36.51-.64,0.93a4.15,4.15,0,0,1-.53.67Q359.26,427.87,359.62,428.73Zm18.45-8a3.1,3.1,0,0,1,.8.24,1.6,1.6,0,0,1,.58.78,14,14,0,0,1,.62,1.73l-0.65,2.07a12,12,0,0,1-.36,1.22,1.52,1.52,0,0,1-.47.71l-1.09,1.31a9.75,9.75,0,0,1-2.63,2.78,5.45,5.45,0,0,1-3.07.93,2.12,2.12,0,0,1-1.56-.51,2.07,2.07,0,0,1-.51-1.53,6.23,6.23,0,0,1,.18-1.34,17.47,17.47,0,0,1,.58-1.93,9.53,9.53,0,0,1,.8-1.94,1.23,1.23,0,0,1,.76-0.71,3.71,3.71,0,0,0,1-.35,3.12,3.12,0,0,0,.85-0.67q0.65-1,1.16-1.82a5.12,5.12,0,0,1,.67-0.85,1.31,1.31,0,0,1,.53-0.38Q377.46,420.57,378.08,420.7Z" transform="translate(-79.83 -382.5)"/>
  <path d="M412.63,426.64q-0.33.36-.84,0.89t-1.09,1q-0.62.54-1.31,1.07a9.32,9.32,0,0,1-1.24.82,4.33,4.33,0,0,1-.89.31,0.93,0.93,0,0,1-.67-0.05,1.32,1.32,0,0,1-.54-0.67,2.28,2.28,0,0,1-.11-1.11,6.61,6.61,0,0,1,.35-1.44q0.27-.78.49-1.54a1,1,0,0,0,0-.51,1,1,0,0,1,0-.51,2.43,2.43,0,0,1,.42-0.85,2,2,0,0,0,.38-0.78,11.26,11.26,0,0,0,.29-1.42,10.52,10.52,0,0,0,.11-1.49,7.71,7.71,0,0,0-.09-1.14,6.9,6.9,0,0,0-.27-1.14,7.48,7.48,0,0,0-.49-1.13,5.33,5.33,0,0,0-.82-1.13,13.45,13.45,0,0,0-1-.91,14,14,0,0,0-1.2-.87l-0.64-.38-0.67-.38q0.29-2-.18-2.32a1.23,1.23,0,0,0-1.24,0,1.42,1.42,0,0,1-.56.05,0.84,0.84,0,0,0-.6.16,0.61,0.61,0,0,0-.2.47,0.5,0.5,0,0,1-.2.44,4,4,0,0,1-.93.33,3.9,3.9,0,0,1-.82.11,5.14,5.14,0,0,1-.4.51q-0.25.29-.51,0.54l-0.53.65a1.91,1.91,0,0,0-.38.73,2,2,0,0,0,0,.71,2.32,2.32,0,0,0,.27.78,3.7,3.7,0,0,0,.69.73,9.09,9.09,0,0,0,1.2.84q-0.11.25-.29,0.73l-0.4,1q-0.18.44-.35,0.94T397,421.77a2.09,2.09,0,0,1-.4.67,4.26,4.26,0,0,0-.47.67,2.38,2.38,0,0,0-.25.8,3.85,3.85,0,0,1-.22.84,5.06,5.06,0,0,1-.53.89,4.55,4.55,0,0,0-.49.82,31.14,31.14,0,0,1-2.67,4.38q-1.54,2.13-2.63,2.13-0.54,0-.91-1.2a13.9,13.9,0,0,1-.51-2.47q-0.07-.65-0.13-1.24t-0.05-.91a0.72,0.72,0,0,0-.35-0.49,1.23,1.23,0,0,0-.78-0.27,1.65,1.65,0,0,0-.94.33,1.2,1.2,0,0,0-.54.65l-0.22,1.09q-0.11.54-.18,1.09-0.11,1-.15,2t0,2a7.82,7.82,0,0,0,.13,1.42,13.09,13.09,0,0,0,.31,1.31,6.3,6.3,0,0,0,.58,1.4,5.06,5.06,0,0,0,.8,1.07,3.89,3.89,0,0,0,.89.55,2.52,2.52,0,0,0,1,.22,2,2,0,0,0,.94-0.27,5.76,5.76,0,0,0,1-.71,10.77,10.77,0,0,0,1.36-1.4,21,21,0,0,0,1.4-1.91q0.73-1.09,1.51-2.36t1.51-2.65A16.49,16.49,0,0,0,397,428q0.4-1.16.91-2.29a2.61,2.61,0,0,1,.51-0.76,2.05,2.05,0,0,0,.47-0.76q0.33-.84.69-1.71t0.65-1.67l0.31-.91q0.16-.47.27-0.91a2.59,2.59,0,0,1,.84.35,1.62,1.62,0,0,1,.54.56,2.7,2.7,0,0,1,.36,1.13,8.3,8.3,0,0,1,0,1.34q0,0.33,0,.76a2.58,2.58,0,0,1,0,.76,3.13,3.13,0,0,1-.35.84,3.12,3.12,0,0,0-.35.84,11.92,11.92,0,0,1-.33,1.24l-0.44,1.38q-0.22.69-.4,1.43a7.67,7.67,0,0,0-.22,1.4,7.76,7.76,0,0,0,0,1.67,3.41,3.41,0,0,0,.4,1.38,4.4,4.4,0,0,0,1.16,1.31,3.15,3.15,0,0,0,1.42.58,4.74,4.74,0,0,0,1.49,0,7.89,7.89,0,0,0,1.63-.45,11.61,11.61,0,0,0,1.44-.69,16.47,16.47,0,0,0,1.54-1q0.76-.54,1.56-1.18t1.53-1.29l0.76-.71q0.4-.38.73-0.74Z" transform="translate(-79.83 -382.5)"/>
  <path d="M444.56,427a2.53,2.53,0,0,1-.22.38l-0.29.38a10.76,10.76,0,0,1-.73.8q-0.4.4-.8,0.73t-0.84.64a8.45,8.45,0,0,1-.84.53,3.71,3.71,0,0,1-.84.31,1.86,1.86,0,0,1-.65.05,0.75,0.75,0,0,1-.56-0.71,6.61,6.61,0,0,1-.09-1.54v-0.76a4.69,4.69,0,0,1,.11-0.87,7.26,7.26,0,0,1,.15-0.74q0.07-.27.18-0.74a2.28,2.28,0,0,0,1.16-.33,3.79,3.79,0,0,0,.44-1.45,2.83,2.83,0,0,0,.51-1.07,0.92,0.92,0,0,0-.18-0.93l-1-.22q0.11-.44.27-1t0.31-1.09q0.33-1.09.74-2.29t0.74-2.22a5.65,5.65,0,0,1,.29-0.91,8.34,8.34,0,0,0,.29-0.8q0.11-.29-1-0.4a5.74,5.74,0,0,0-2,.11,9.57,9.57,0,0,0-1.94.74,2.21,2.21,0,0,0-1.18,1.11q-0.11.4-.27,0.85a9.31,9.31,0,0,0-.27.89,8.52,8.52,0,0,0-.2.84,7.2,7.2,0,0,1-.24.91,4.82,4.82,0,0,1-.31.76,6.31,6.31,0,0,0-.35.84q-0.15.4-.25,0.82l-0.22.85a5.93,5.93,0,0,0-.89.15,7.91,7.91,0,0,0-.85.25,6.06,6.06,0,0,0-1.27.6,6,6,0,0,0-1.09.85,5.36,5.36,0,0,1-.82.65,3.29,3.29,0,0,0-.82.76,9.68,9.68,0,0,1-.87,1.11,8.4,8.4,0,0,0-.84,1.07,4.86,4.86,0,0,0-.55,1.05,2.59,2.59,0,0,1-.51.87,3,3,0,0,0-.4.67,0.67,0.67,0,0,1-.36.42,0.7,0.7,0,0,1-.35-0.6,2.55,2.55,0,0,1,.2-1.14,9.43,9.43,0,0,1,.69-1.45q0.47-.84.84-1.63t0.65-1.38l0.62-1.38,0.38-.94q0.2-.51.35-0.94,0.22-.65.45-1.29a7.46,7.46,0,0,0,.35-1.22,13.08,13.08,0,0,0,.31-1.65,4.87,4.87,0,0,0,0-1.4,2.62,2.62,0,0,0-.33-1,1.63,1.63,0,0,0-.69-0.65,7.43,7.43,0,0,0-1-.35,3.38,3.38,0,0,0-.87-0.13,2.68,2.68,0,0,0-1.27.33,7.45,7.45,0,0,0-1.27.87,10.07,10.07,0,0,0-1.22,1.2q-0.67.76-1.36,1.6l-1,1.2-1,1.2q-0.76.84-1.54,1.78l-1.54,1.85-1.53,1.8q-0.76.89-1.42,1.54-0.36.4-.71,0.74a7.13,7.13,0,0,1-.67.6l1.45,3.31,0.53-.45a7.15,7.15,0,0,0,.6-0.6q0.44-.44.93-1t0.93-1q0.36-.44.73-0.84l0.65-.73,1-1.07a12.21,12.21,0,0,1,.94-0.89,3.56,3.56,0,0,1,.91-0.64,0.8,0.8,0,0,1,.65-0.09,0.67,0.67,0,0,1,.31.64,5.42,5.42,0,0,1-.13,1.22,11.49,11.49,0,0,1-.35,1.27l-0.49,1.49q-0.22.65-.51,1.4T419.86,431q-0.18.62-.35,1.27t-0.31,1.27a7.84,7.84,0,0,1-.29.91,3.26,3.26,0,0,0-.22.84,7,7,0,0,0-.07,1,1.18,1.18,0,0,0,.29.82,5,5,0,0,0,.51.51,1.9,1.9,0,0,0,.65.4,7.06,7.06,0,0,0,.82.33,1.27,1.27,0,0,0,.89-0.15,2.9,2.9,0,0,1,1-.27,1.4,1.4,0,0,0,.94-0.45q0.29-.36.73-1t0.73-1a4.39,4.39,0,0,0,.62-1.16,4.42,4.42,0,0,1,.58-1.13q0.44-.65.78-1.29a10.26,10.26,0,0,1,.74-1.18,7.43,7.43,0,0,1,1-1.14q0.56-.53,1-1a9.32,9.32,0,0,0,.8-0.91,4.16,4.16,0,0,1,.8-0.8,3.32,3.32,0,0,1,1-.44,5.33,5.33,0,0,1,1-.18q-0.11.54-.18,1.13t-0.11,1.13a2.06,2.06,0,0,1-.11.65,2.06,2.06,0,0,0-.11.65,4.89,4.89,0,0,0,.09,1,8,8,0,0,1,.13.89l0.07,0.67q0,0.35.07,0.6a6.13,6.13,0,0,0,.27.84,3.09,3.09,0,0,0,.38.69,4.31,4.31,0,0,0,.51.56,2.21,2.21,0,0,0,.62.42,5.34,5.34,0,0,0,.71.25,3,3,0,0,0,.82.11,7.2,7.2,0,0,0,1.31-.13,9.92,9.92,0,0,0,1.34-.35,14.39,14.39,0,0,0,1.85-.74,12.88,12.88,0,0,0,1.78-1,2.46,2.46,0,0,0,.6-0.58,4,4,0,0,1,.56-0.62,6.07,6.07,0,0,1,.6-0.53,5.32,5.32,0,0,0,.53-0.45q0.33-.4.47-0.54a2.81,2.81,0,0,0,.36-0.51Z" transform="translate(-79.83 -382.5)"/>
  <path d="M444.74,427.36a2,2,0,0,1,.18.4q0.29,0.87.56,1.53t0.45,1.13l1.74-1.42q0.73-.58,1.13-0.87l0.15-.07a0.6,0.6,0,0,1,.53.54,6.09,6.09,0,0,1,.16,1.63q-0.11.76-.25,1.38,0.22,0.65.36,1-0.11.44-.16,0.76a3.42,3.42,0,0,0-.05.54,2.22,2.22,0,0,0,.62,1.73,2.61,2.61,0,0,0,1.82.56,5.21,5.21,0,0,0,4.94-3.05,10.78,10.78,0,0,0,2.43-1.58,16.41,16.41,0,0,0,2.43-2.6q0.91-.87,1.69-1.53a7.58,7.58,0,0,1,1.44-1,3.11,3.11,0,0,1,.16.67,1,1,0,0,0,.09.38q-0.22,1.6-.47,3a17.11,17.11,0,0,1-.62,2.42q-0.8,1.82-1.36,3.16t-1,2.29a7,7,0,0,1-.27.8q-0.16.4-.31,0.69L459,442.17q-1.24,1.36-2.72,3.11-2,2.36-3.11,3.87a11.5,11.5,0,0,0-1.36,2.16l-0.63.58a4.2,4.2,0,0,0-.41.44,2.72,2.72,0,0,1-.14.65l-1.08.94a21.62,21.62,0,0,1-1.27,2,4.08,4.08,0,0,0-.65,1.16,3,3,0,0,0-.18.91,1.3,1.3,0,0,0,.36,1,1.71,1.71,0,0,0,1.16.33,7.61,7.61,0,0,0,4.39-1.6,23.09,23.09,0,0,0,4.76-4.9q0.73-1,2.34-3.52t4-6.5a28.38,28.38,0,0,1,4.41-5.36,56.23,56.23,0,0,1,6.66-5.47,7.77,7.77,0,0,0,1.11-.89l0.71-.71-1.45-3.34q-2.28,2.29-3.79,3.65a11.29,11.29,0,0,1-2.26,1.73l-0.25-.33q0.76-2.25,1.43-4.12t1.29-3.22q0.73-2.14,1.24-3.72t0.76-2.67c0-.15.05-0.3,0.09-0.45a2.17,2.17,0,0,0,.05-0.49,1.08,1.08,0,0,0-.42-0.93,2.1,2.1,0,0,0-1.25-.31,5.34,5.34,0,0,0-2.09.36,3.07,3.07,0,0,0-1.33,1q-1.16,1.27-2.09,2.18t-1.65,1.49q-1.89,1.85-3.29,3.27T460,426.82q-1.16,1-2.09,1.65t-1.62,1.11l-0.18,0a0.56,0.56,0,0,1-.38-0.15,0.66,0.66,0,0,1-.16-0.51,16.27,16.27,0,0,1,1.09-4.8,16.23,16.23,0,0,0,1.09-4.58,1.76,1.76,0,0,0-.49-1.38,2,2,0,0,0-1.36-.44,3,3,0,0,0-1.38.36,7.09,7.09,0,0,0-1.42,1l-2.08,2.2q-0.87.93-1.42,1.58a24.69,24.69,0,0,1-2.56,2,19,19,0,0,0-2.56,2.11A1,1,0,0,1,444.74,427.36Z" transform="translate(-79.83 -382.5)"/>
  <path d="M501.69,422.13a1.55,1.55,0,0,1,.31-0.73q0.54-.65,1.42-1.56a4.29,4.29,0,0,1,1.63-1.16,1.28,1.28,0,0,1,.71-0.07,1.26,1.26,0,0,0,.85-0.29,1.83,1.83,0,0,1,.8.87,3.13,3.13,0,0,1,1.93,1.13,3.7,3.7,0,0,1,.8,2.47,8.71,8.71,0,0,1-.64,3.16,9.87,9.87,0,0,1-1.65,2.83,11.8,11.8,0,0,1-2.91,2.76,5.47,5.47,0,0,1-2.94.94,5.1,5.1,0,0,1-1.73-.29,2,2,0,0,1-1-1.82q0-.69.05-1.54a9.17,9.17,0,0,1,.31-1.8,3,3,0,0,0,.4.13,1.65,1.65,0,0,0,.4.05,2.38,2.38,0,0,0,1.13-.05,1.63,1.63,0,0,0,.8-0.42,0.4,0.4,0,0,0,.18-0.38,1.48,1.48,0,0,1,.07-0.6l0.76-.8a1.09,1.09,0,0,0-.33-1.25,6.37,6.37,0,0,0-1.63-.82A2.25,2.25,0,0,0,501.69,422.13Zm-7.7,7.61a19.11,19.11,0,0,0,.24,2.27,9.94,9.94,0,0,0,.49,2,4.87,4.87,0,0,0,.93,1.62l0.58,0.67a2.46,2.46,0,0,0,.65.56,3.81,3.81,0,0,0,1.42.45,11.27,11.27,0,0,0,1.31.09,8,8,0,0,0,2.09-.29,15.88,15.88,0,0,0,2.16-.76,13.36,13.36,0,0,0,1.69-.89,18.07,18.07,0,0,0,1.73-1.22,5.78,5.78,0,0,0,.85-0.8,11.72,11.72,0,0,1,.85-0.87,3.12,3.12,0,0,0,.36.38,1.79,1.79,0,0,0,.51.35,2.73,2.73,0,0,0,.93.27,7.33,7.33,0,0,0,.74.05,4.34,4.34,0,0,0,1-.13,7.53,7.53,0,0,0,1.09-.35,5.48,5.48,0,0,0,.78-0.31,4,4,0,0,0,.78-0.49,8,8,0,0,0,.91-0.91q0.47-.54.94-1.16l-1.49-3.23a5.41,5.41,0,0,1-.58.71,2.72,2.72,0,0,1-.84.6,3.23,3.23,0,0,1-.65.16,4.66,4.66,0,0,1-.69.05l-0.25-.07,0.85-1.24a8.3,8.3,0,0,0,.71-1.27,7.79,7.79,0,0,0,.44-1.2q0.18-.65.33-1.24,0.25-.87.47-1.82a8.07,8.07,0,0,0,.22-1.82q0-.54-0.05-1.2a4.14,4.14,0,0,0-.27-1.2,4.93,4.93,0,0,0-.62-1.24,3.78,3.78,0,0,0-.91-0.94,9.21,9.21,0,0,0-1.47-.82,4,4,0,0,0-1.65-.35,7.64,7.64,0,0,0-1.09.09l-1.2.2-0.89.22q-0.45.11-.78,0.22a4.06,4.06,0,0,1,.74-1.29,0.28,0.28,0,0,0,.16-0.31l-0.76-.4a8.32,8.32,0,0,0-1.31-.25,2.61,2.61,0,0,0-.87.24q-0.58.24-1.27,0.6t-1.24.78a10.75,10.75,0,0,0-1.2,1q-0.69.69-1.34,1.45t-1.24,1.56a4.05,4.05,0,0,1-.69.8,3.61,3.61,0,0,0-.69.84,3.51,3.51,0,0,0-.49,1.05,7.42,7.42,0,0,1-.42,1.13,6.89,6.89,0,0,0-1.62.54,7.13,7.13,0,0,0-1.62,1.05A9.93,9.93,0,0,0,491,425.4a17.63,17.63,0,0,0-1.62,2.4q-0.84,1.34-.36-0.51a7.52,7.52,0,0,1,.27-1l0.42-1.25q0.22-.54.45-1.22t0.45-1.33q0.22-.65.49-1.36t0.49-1.36a1.83,1.83,0,0,1,.4-0.69,1.91,1.91,0,0,0,.4-0.65,3,3,0,0,0,.2-0.56q0.09-.34.13-0.56a2.31,2.31,0,0,0,.13-0.84,2.39,2.39,0,0,1,.05-0.69,0.89,0.89,0,0,0-.11-0.64,2.28,2.28,0,0,0-.51-0.64l-0.47.11a2.7,2.7,0,0,1-.51-0.49,0.72,0.72,0,0,0-.54-0.31,6.7,6.7,0,0,0-.73,0h-0.8a6,6,0,0,0-1.05.16,1.3,1.3,0,0,0-.69.35,5.17,5.17,0,0,1-.42.53q-0.27.31-.56,0.67l-0.65.73-0.76.84-1.16,1.29q-0.62.67-1.16,1.33t-1,1.13q-0.51.54-.84,0.94l-0.15.44a18.15,18.15,0,0,1-1.4,1.45q-0.67.62-1.22,1.16l-0.22.73a6.23,6.23,0,0,1-1.24,1,7.29,7.29,0,0,0-.91.64l1.45,3.34a11.71,11.71,0,0,0,1-.93q0.62-.64,1.27-1.36a1.06,1.06,0,0,1,.4-0.24,0.87,0.87,0,0,0,.4-0.27,7.82,7.82,0,0,0,.69-1,5.86,5.86,0,0,1,.62-0.87,7.82,7.82,0,0,0,.71-0.84,7.64,7.64,0,0,1,.67-0.8,0.51,0.51,0,0,1,.29-0.16,0.61,0.61,0,0,0,.29-0.13,7,7,0,0,1,1.56-1.05,0.57,0.57,0,0,1,.2.58,6.16,6.16,0,0,1-.2,1.2,14.37,14.37,0,0,1-.45,1.54q-0.31.89-.64,1.87t-0.56,1.73L483,431.18q-0.18.54-.33,1.11t-0.25,1.25a2.17,2.17,0,0,0,.15.78,3.53,3.53,0,0,0,.36.71,2.34,2.34,0,0,0,.56.53,3.28,3.28,0,0,0,.74.38q0.29,0.11.74,0.33a2,2,0,0,0,.85.22,0.71,0.71,0,0,0,.53-0.25,1.47,1.47,0,0,1,.49-0.36,2.4,2.4,0,0,0,.78-0.53,3,3,0,0,0,.56-0.78,25.71,25.71,0,0,1,1.36-2.52q0.71-1.14,1.36-2a11.76,11.76,0,0,1,1.56-1.62,6.46,6.46,0,0,1,1.67-1A10.55,10.55,0,0,0,494,429.74Z" transform="translate(-79.83 -382.5)"/>
</svg>
